<?xml version="1.0" encoding="utf-8"?>
<svg viewBox="177.411 235.351 163.0802 56.63" width="163.0802" height="100.63" xmlns="http://www.w3.org/2000/svg">
  <path d="M 191.994 278.667 C 183.954 278.667 177.411 271.776 177.411 263.306 C 177.411 254.838 183.954 247.948 191.994 247.948 C 200.035 247.948 206.578 254.838 206.578 263.306 C 206.578 271.776 200.036 278.667 191.994 278.667 Z M 191.994 249.413 C 184.722 249.413 178.805 255.646 178.805 263.306 C 178.805 270.967 184.722 277.199 191.994 277.199 C 199.268 277.199 205.185 270.965 205.185 263.305 C 205.185 255.644 199.269 249.413 191.994 249.413 Z" style="fill: rgb(253, 253, 253);" transform="matrix(1, 0, 0, 1, -7.105427357601002e-15, 0)"/>
  <path d="M 202.577 263.989 C 202.123 262.217 197.964 262.027 195.491 262.676 C 194.194 263.017 192.869 263.46 191.502 263.716 C 192.503 264.65 193.576 265.534 195.117 265.754 C 198.941 266.297 201.317 265.033 202.577 263.989 Z" style="fill: rgb(253, 253, 253);" transform="matrix(1, 0, 0, 1, -7.105427357601002e-15, 0)"/>
  <path d="M 195.117 265.754 C 193.574 265.534 192.503 264.65 191.502 263.716 C 189.954 262.27 188.577 260.702 185.877 261.292 C 181.58 262.229 181.015 267.581 184.332 271.022 C 185.756 272.593 187.585 273.691 189.594 274.184 C 191.602 274.676 193.703 274.542 195.64 273.795 C 197.577 273.049 199.264 271.724 200.497 269.982 C 201.729 268.241 202.453 266.158 202.577 263.99 C 201.317 265.033 198.941 266.297 195.117 265.754 Z" style="fill: rgb(253, 253, 253);" transform="matrix(1, 0, 0, 1, -7.105427357601002e-15, 0)"/>
  <path d="M 197.366 254.171 C 196.83 255.381 201.609 256.724 202.18 260.743 C 202.456 256.786 198.029 252.675 197.366 254.171 Z" style="fill: rgb(253, 253, 253);" transform="matrix(1, 0, 0, 1, -7.105427357601002e-15, 0)"/>
  <path d="M 187.321 259.223 C 188.184 258.847 188.593 257.808 188.236 256.899 C 187.878 255.991 186.891 255.56 186.029 255.936 C 185.168 256.312 184.76 257.352 185.115 258.26 C 185.472 259.168 186.459 259.598 187.321 259.223 Z" style="fill: rgb(253, 253, 253);" transform="matrix(1, 0, 0, 1, -7.105427357601002e-15, 0)"/>
  <path d="M 191.156 254.34 C 191.559 253.916 191.559 253.227 191.156 252.802 C 190.754 252.378 190.099 252.378 189.697 252.802 C 189.294 253.227 189.294 253.916 189.697 254.34 C 190.099 254.765 190.754 254.765 191.156 254.34 Z" style="fill: rgb(253, 253, 253);" transform="matrix(1, 0, 0, 1, -7.105427357601002e-15, 0)"/>
  <path d="M 194.802 247.351 C 196.293 242.713 195.291 239.008 192.227 237.249 C 190.133 237.697 188.888 238.765 188.197 240.237 C 192.305 239.888 194.912 242.596 194.802 247.351 Z" style="fill: rgb(253, 253, 253);" transform="matrix(1, 0, 0, 1, -7.105427357601002e-15, 0)"/>
  <path d="M 211.522 243.299 C 204.142 240.51 199.486 241.467 198.753 247.822 C 202.983 252.417 207.241 250.219 211.522 243.299 Z" style="fill: rgb(253, 253, 253);" transform="matrix(1, 0, 0, 1, -7.105427357601002e-15, 0)"/>
  <path d="M 205.653 240.783 C 205.995 239.242 206.172 237.423 206.198 235.351 C 198.546 237.146 195.095 240.576 197.698 246.36 C 197.827 246.392 197.953 246.419 198.077 246.446 C 198.685 241.92 201.365 240.245 205.653 240.783 Z" style="fill: rgb(253, 253, 253);" transform="matrix(1, 0, 0, 1, -7.105427357601002e-15, 0)"/>
  <text style="fill: rgb(255, 255, 255); font-family: Arial, sans-serif; font-size: 28px; font-weight: 700; white-space: pre;" x="214.018" y="270.094" transform="matrix(1, 0, 0, 1, -7.105427357601002e-15, 0)">EduSync</text>
  <text style="white-space: pre; fill: rgb(51, 51, 51); font-family: Arial, sans-serif; font-size: 28px;" x="332.71" y="285.981" transform="matrix(1, 0, 0, 1, -7.105427357601002e-15, 0)"> </text>
</svg>